<svg xmlns="http://www.w3.org/2000/svg" width="880.498" height="880.521" viewBox="0 0 880.498 880.521">
  <g id="moon" transform="translate(-21.333 -122.146)">
    <path id="Контур_1" data-name="Контур 1" d="M895.573,652.1a21.5,21.5,0,0,0-20.693-5.5A406.185,406.185,0,0,1,768,661.333c-223.509,0-405.333-181.824-405.333-405.333a405.383,405.383,0,0,1,14.741-106.88,21.333,21.333,0,0,0-26.2-26.219C156.971,175.957,21.333,353.515,21.333,554.667c0,247.04,200.96,448,448,448,201.173,0,378.709-135.637,431.744-329.856a21.333,21.333,0,0,0-5.5-20.715Z" fill="#efd358"/>
  </g>
</svg>
